<svg width="32" height="32" viewBox="0 0 32 32" fill="none" xmlns="http://www.w3.org/2000/svg">
<path d="M27.2206 23.8148C27.2206 23.8148 25.2446 23.8046 24.1314 23.8148C22.2949 23.8148 17.2274 23.3931 13.7097 20.8011C10.4503 18.4 6.77029 13.2229 5.90743 10.3783C5.29029 8.33943 0.0811436 8.83085 0.0811436 8.83085C0.0811436 8.83085 0.196572 5.912 3.46743 5.68343C3.46743 3.86057 4.14743 2.50171 5.81486 2.224C7.00343 2.02628 8.43543 2.944 9.02629 3.52114C9.05829 1.89371 9.52114 0 12.0857 0C13.5726 0 14.8434 1.90743 15.2366 3.24343C15.6686 2.31657 16.7726 1.14286 18.0777 1.14286C19.2754 1.14286 20.4251 2.41143 20.4251 4.50971C23.8011 4.50971 23.7897 6.72457 23.8537 7.75314C21.0023 7.70171 17.3543 6.77371 18.232 13.1886C19.0789 19.3577 22.5211 20.6617 27.2206 22.6708V23.8148ZM0.0537151 25.2434C0.0914293 27.464 2.22629 29.336 3.94171 30.6446C3.94171 30.6446 4.49829 31.7531 5.98857 31.7531C7.47886 31.7531 8.31657 29.4983 9.584 29.4983C10.968 29.4983 11.5006 31.7531 13.5989 31.7531C15.696 31.7531 15.8926 29.4983 17.5531 29.4983C19.2126 29.4983 20.0343 31.7531 21.6309 31.7531C23.2297 31.7531 24.4823 29.4983 25.728 29.4983C27.5863 29.4983 27.5703 31.7531 29.1063 31.7531C30.5749 31.7531 31.7931 26.8423 31.7931 26.8423C31.7931 26.8423 31.3657 26.1508 31.0834 26.1508C29.6503 26.1508 21.1531 26.1508 17.5143 26.1508C13.16 26.1508 13.4686 26.4571 9.888 25.8C5.59657 25.0126 5.49143 23.2308 5.49143 20.1737C5.49143 17.1154 4.15657 16.2377 2.41943 15.9703C1.24343 15.7897 -0.113142 16.4309 0.0102865 17.632C0.188572 19.3577 3.648 17.8549 3.648 19.4137C3.64457 21.2274 -0.00685637 21.5211 0.0537151 25.2434Z" fill="#303236"/>
</svg>
