<svg width="6" height="21" viewBox="0 0 6 21" fill="none" xmlns="http://www.w3.org/2000/svg">
<path d="M0.416707 0.666672H5.58337L4.72226 13.5763H1.27782L0.416707 0.666672ZM3.00004 20.6667C2.24078 20.6667 1.60189 20.4219 1.08337 19.9322C0.583374 19.4237 0.333374 18.8117 0.333374 18.0961C0.333374 17.3804 0.583374 16.7872 1.08337 16.3164C1.58337 15.8267 2.22226 15.5819 3.00004 15.5819C3.77782 15.5819 4.41671 15.8267 4.91671 16.3164C5.41671 16.7872 5.66671 17.3804 5.66671 18.0961C5.66671 18.8117 5.40745 19.4237 4.88893 19.9322C4.38893 20.4219 3.7593 20.6667 3.00004 20.6667Z" fill="#E94949"/>
</svg>
