<svg width="30" height="24" viewBox="0 0 30 24" fill="none" xmlns="http://www.w3.org/2000/svg">
<path d="M5.51857 0.444443H1.72598C1.2026 0.444443 0.777832 0.87585 0.777832 1.40741V5.25926C0.777832 5.79081 1.2026 6.22222 1.72598 6.22222C2.24936 6.22222 2.67413 5.79081 2.67413 5.25926V2.37037H5.51857C6.04195 2.37037 6.46672 1.93896 6.46672 1.40741C6.46672 0.87585 6.04195 0.444443 5.51857 0.444443Z" fill="#303236"/>
<path d="M28.2741 17.7778C27.7507 17.7778 27.326 18.2092 27.326 18.7407V21.6296H24.4815C23.9582 21.6296 23.5334 22.061 23.5334 22.5926C23.5334 23.1241 23.9582 23.5556 24.4815 23.5556H28.2741C28.7975 23.5556 29.2223 23.1241 29.2223 22.5926V18.7407C29.2223 18.2092 28.7975 17.7778 28.2741 17.7778Z" fill="#303236"/>
<path d="M28.2741 0.444443H24.4815C23.9582 0.444443 23.5334 0.87585 23.5334 1.40741C23.5334 1.93896 23.9582 2.37037 24.4815 2.37037H27.326V5.25926C27.326 5.79081 27.7507 6.22222 28.2741 6.22222C28.7975 6.22222 29.2223 5.79081 29.2223 5.25926V1.40741C29.2223 0.87585 28.7975 0.444443 28.2741 0.444443Z" fill="#303236"/>
<path d="M5.51857 21.6296H2.67413V18.7407C2.67413 18.2092 2.24936 17.7778 1.72598 17.7778C1.2026 17.7778 0.777832 18.2092 0.777832 18.7407V22.5926C0.777832 23.1241 1.2026 23.5556 1.72598 23.5556H5.51857C6.04195 23.5556 6.46672 23.1241 6.46672 22.5926C6.46672 22.061 6.04195 21.6296 5.51857 21.6296Z" fill="#303236"/>
<path d="M6.46672 4.2963H4.57043V19.7037H6.46672V4.2963Z" fill="#303236"/>
<path d="M10.2593 4.2963H8.36302V15.8519H10.2593V4.2963Z" fill="#303236"/>
<path d="M14.0519 4.2963H12.1556V15.8519H14.0519V4.2963Z" fill="#303236"/>
<path d="M17.8445 4.2963H15.9482V19.7037H17.8445V4.2963Z" fill="#303236"/>
<path d="M21.6371 4.2963H19.7408V15.8519H21.6371V4.2963Z" fill="#303236"/>
<path d="M25.4297 4.2963H23.5334V19.7037H25.4297V4.2963Z" fill="#303236"/>
<path d="M10.2593 17.7778H8.36302V19.7037H10.2593V17.7778Z" fill="#303236"/>
<path d="M14.0519 17.7778H12.1556V19.7037H14.0519V17.7778Z" fill="#303236"/>
<path d="M21.6371 17.7778H19.7408V19.7037H21.6371V17.7778Z" fill="#303236"/>
</svg>
