<svg width="14" height="16" viewBox="0 0 14 16" fill="none" xmlns="http://www.w3.org/2000/svg">
<path d="M12.9955 3.9785L7.51166 0.980648C7.36543 0.90753 7.21919 0.834412 6.99984 0.834412C6.78048 0.834412 6.63424 0.90753 6.48801 0.980648L1.00414 3.9785C0.638544 4.19785 0.419189 4.56344 0.419189 5.00215V11.729C0.419189 12.1677 0.638544 12.5333 1.00414 12.6796L6.48801 15.7505C6.63424 15.8237 6.8536 15.8968 6.99984 15.8968C7.21919 15.8968 7.36543 15.8237 7.51166 15.7505L12.9955 12.6796C13.3611 12.4602 13.5805 12.0946 13.5805 11.729V5.00215C13.5805 4.56344 13.3611 4.19785 12.9955 3.9785ZM6.99984 2.3699L11.3138 4.7828L6.99984 7.12258L2.68586 4.7828L6.99984 2.3699ZM1.88156 5.95269L6.26865 8.36559V13.9226L1.88156 11.5097V5.95269ZM7.73102 13.9226V8.36559L12.1181 5.95269V11.5097L7.73102 13.9226Z" fill="black"/>
</svg>
