<svg width="22" height="16" viewBox="0 0 22 16" fill="none" xmlns="http://www.w3.org/2000/svg">
<path d="M0.579406 8.8C0.415303 8.64 0.333252 8.4 0.333252 8.24C0.333252 8.08 0.415303 7.84 0.579406 7.68L1.72812 6.56C2.05633 6.24 2.54864 6.24 2.87684 6.56L2.95889 6.64L7.47171 11.36C7.63582 11.52 7.88197 11.52 8.04607 11.36L19.0409 0.24H19.123C19.4512 -0.08 19.9435 -0.08 20.2717 0.24L21.4204 1.36C21.7486 1.68 21.7486 2.16 21.4204 2.48L8.29223 15.76C8.12812 15.92 7.96402 16 7.71787 16C7.47171 16 7.30761 15.92 7.14351 15.76L0.743508 9.04L0.579406 8.8Z" fill="#87CA44"/>
</svg>
